<svg version="1.1" xmlns:svg="http://www.w3.org/2000/svg" xmlns="http://www.w3.org/2000/svg"  viewBox="0 0 200 200">
	<g id="solarbit.cc">
		<g id="sol" transform="translate(100, 100)">
			<path style="stroke:none; fill:gold"
				d="M 0.0000,100.00000 L -23.1763,71.32924 L -58.7785,80.90170 L -60.6763,44.08389
				L -95.1057,30.90170 L -75.0000,0.00000 L -95.1057,-30.90170 L -60.6763,-44.08389
				L -58.7785,-80.90170 L -23.1763,-71.32924 L -0.0000,-100.00000 L 23.1763,-71.32924
				L 58.7785,-80.90170 L 60.6763,-44.08389 L 95.1057,-30.90170 L 75.0000,-0.00000
				L 95.1057,30.90170 L 60.6763,44.08389 L 58.7785,80.90170 L 23.1763,71.32924
				M 0,0 m -65,0 a 65,65 0 1,0 130,0 a 65,65 0 1,0 -130,0"/>
		</g>
		<g id="btc" transform="translate(-24,-9) scale(1.2) rotate(-15)">
			<path style="fill:gold" d="M 107.786,104.991 C 109.219,95.409 101.923,90.26 91.948,86.824 l 3.235,-12.978 -7.899,-1.969 -3.151,12.636 c -2.079,-0.518 -4.21,-1.006 -6.331,-1.489 l 3.171,-12.72 -7.894,-1.969 -3.239,12.976 c -1.719,-0.392 -3.406,-0.778 -5.045,-1.186 l 0.008,-0.04 -10.894,-2.72 -2.102,8.437 c 0,0 5.861,1.343 5.737,1.427 3.2,0.799 3.777,2.916 3.681,4.594 l -3.685,14.785 c 0.22,0.057 0.505,0.136 0.821,0.264 -0.264,-0.066 -0.545,-0.137 -0.834,-0.207 l -5.166,20.71 c -0.392,0.972 -1.385,2.431 -3.621,1.877 0.079,0.114 -5.745,-1.433 -5.745,-1.433 l -3.92,9.041 10.28,2.563 c 1.911,0.479 3.788,0.979 5.632,1.453 l -3.267,13.127 7.891,1.969 3.237,-12.987 c 2.158,0.584 4.25,1.125 6.298,1.634 l -3.226,12.926 7.9,1.969 3.27,-13.102 c 13.473,2.548 23.604,1.52 27.866,-10.663 3.437,-9.81 -0.17,-15.469 -7.258,-19.16 5.161,-1.19 9.051,-4.586 10.088,-11.598 z m -18.049,25.311 c -2.444,9.811 -18.96,4.507 -24.318,3.176 l 4.338,-17.389 c 5.355,1.335 22.53,3.981 19.98,14.213 z m 2.44,-25.452 c -2.226,8.924 -15.975,4.389 -20.435,3.277 l 3.932,-15.772 c 4.459,1.112 18.824,3.187 16.503,12.495 z"/>
		</g>
	-->
	</g>
</svg>
